<svg xmlns="http://www.w3.org/2000/svg" viewBox="0 0 1000 1000" xml:space="preserve">
  <path
    d="M462.46 11.22c-78.11 8.18-153.55 41.3-212.24 93.24-61.95 54.59-105.3 131.68-121.04 214.69-6.54 35.17-6.54 95.28.21 131.68 5.73 31.49 20.65 77.49 34.76 107.14 31.49 66.86 74.22 124.72 180.13 243.52 73 81.79 110.62 128.2 141.08 173.39 12.88 19.01 15.74 19.63 25.35 4.5 22.9-36.39 70.75-95.49 146.6-180.95 70.34-79.33 95.49-109.8 124.11-149.47 70.75-98.96 103.05-204.06 92.22-302-18.4-168.68-144.15-303.22-310.38-331.85-27.39-4.7-75.44-6.54-100.8-3.89z" />
</svg>